# xmcd
#
# Track frame offsets:
#	150
#	14202
#	31190
#	45420
#	79985
#	108777
#	133667
#	155685
#	177537
#	195787
#	216385
#	242892
#	265852
#	292732
#
# Disc length: 4146 seconds
#
# Revision: 4
# Processed by: cddbd v1.5.2PL0 Copyright (c) Steve Scherf et al.
# Submitted via: EasyCDDAExtractor 16.0.6.1
#
DISCID=c110300e
DTITLE=Various Artist - (Almost) Everybody Slides
DYEAR=1993
DGENRE=Blues
TTITLE0=Sonny Landreth - Zydeco Shuffle
TTITLE1=Roy Rodgers - Crawfish City
TTITLE2=Anson Funderburgh - Red Hot Mama
TTITLE3=Danny Gatton - Notcho Blues
TTITLE4=Chris Holzhaus - Long Sad Letters
TTITLE5=Duke Robillard - You're The One That I Adore
TTITLE6=Ronnie Earl - Linda
TTITLE7=Lenny Carlson - Mood Indigo
TTITLE8=Denny Freeman - Blues Island
TTITLE9=Tinsley Ellis and The Heartfixers - Cool On It
TTITLE10=Tom Principato - Congo Square
TTITLE11=Joanna Connor - Doctor Feelgood
TTITLE12=Johnny Winter - Going Down Slow
TTITLE13=Michael Bloomfield and Woody Harris - Gonna Need Somebody On My Bond
EXTD=YEAR: 1993 ID3G: 0
EXTT0=Sonny Landreth\n
EXTT1=Roy Rodgers\n
EXTT2=Anson Funderburgh\n
EXTT3=Danny Gatton\n
EXTT4=Chris Holzhaus\n
EXTT5=Duke Robillard\n
EXTT6=Ronnie Earl\n
EXTT7=Lenny Carlson\n
EXTT8=Denny Freeman\n
EXTT9=Tinsley Ellis and The Heartfixers\n
EXTT10=
EXTT11=Tom Principato\n
EXTT12=Johnny Winter\n
EXTT13=Michael Bloomfield and Woody Harris\n
PLAYORDER=
